<?xml version="1.0" encoding="utf-8"?>
<!-- Generator: Adobe Illustrator 16.0.0, SVG Export Plug-In . SVG Version: 6.00 Build 0)  -->
<!DOCTYPE svg PUBLIC "-//W3C//DTD SVG 1.1//EN" "http://www.w3.org/Graphics/SVG/1.1/DTD/svg11.dtd">
<svg version="1.1" id="Layer_1" xmlns="http://www.w3.org/2000/svg" xmlns:xlink="http://www.w3.org/1999/xlink" x="0px" y="0px"
  width="150px" height="150px" viewBox="0 0 100 100" enable-background="new 0 0 100 100" xml:space="preserve">
<g>
  <line fill="none" stroke="#000000" stroke-width="0.5" stroke-miterlimit="10" x1="29.885" y1="24.399" x2="62.633" y2="24.399"/>
</g>
<g>
  <line fill="none" stroke="#000000" stroke-width="0.5" stroke-miterlimit="10" x1="29.885" y1="31.108" x2="62.633" y2="31.108"/>
  <g>
    <path fill="none" stroke="#000000" stroke-width="0.5" stroke-miterlimit="10" d="M73.975,86.457c0,1.65-1.35,3-3,3H21.543
      c-1.65,0-3-1.35-3-3V13.543c0-1.65,1.35-3,3-3h49.431c1.65,0,3,1.35,3,3V86.457z"/>
  </g>
</g>
<g>
  <path fill="#FFFFFF" stroke="#000000" stroke-width="0.5" stroke-miterlimit="10" d="M12,11.297c0-3.429,3.15-6.234,7-6.234
    s7,2.806,7,6.234c0,3.428-3.15,6.234-7,6.234S12,14.726,12,11.297z"/>
</g>
<g>
  <line fill="none" stroke="#000000" stroke-width="0.5" stroke-miterlimit="10" x1="19" y1="8.422" x2="19" y2="14.172"/>
</g>
<g>
  <line fill="none" stroke="#000000" stroke-width="0.5" stroke-miterlimit="10" x1="16.125" y1="11.297" x2="21.875" y2="11.297"/>
</g>
<g>
  <line fill="none" stroke="#000000" stroke-width="0.5" stroke-miterlimit="10" x1="29.885" y1="38.297" x2="62.633" y2="38.297"/>
</g>
<g>
  <line fill="none" stroke="#000000" stroke-width="0.5" stroke-miterlimit="10" x1="29.885" y1="75.318" x2="29.885" y2="63.658"/>
</g>
<g>
  <line fill="none" stroke="#000000" stroke-width="0.5" stroke-miterlimit="10" x1="62.633" y1="75.039" x2="62.633" y2="63.378"/>
</g>
<g>
  <line fill="none" stroke="#000000" stroke-width="0.5" stroke-miterlimit="10" x1="37.393" y1="57.107" x2="37.393" y2="75.318"/>
</g>
<g>
<line fill="none" stroke="#000000" stroke-width="0.5" stroke-miterlimit="10" x1="54.484" y1="57.107" x2="54.484" y2="75.318"/>
</g>
<g>
  <line fill="none" stroke="#000000" stroke-width="0.5" stroke-miterlimit="10" x1="46.259" y1="51.718" x2="46.259" y2="75.6"/>
</g>
</svg>
